<svg id="visual" viewBox="0 0 2560 1440" width="2560" height="1440" xmlns="http://www.w3.org/2000/svg" xmlns:xlink="http://www.w3.org/1999/xlink" version="1.1"><rect x="0" y="0" width="2560" height="1440" fill="#012100"></rect><path d="M923 0L832 0L832 63L968 63L968 125L996 125L996 188L1110 188L1110 250L944 250L944 313L911 313L911 376L1063 376L1063 438L1103 438L1103 501L866 501L866 563L901 563L901 626L929 626L929 689L841 689L841 751L884 751L884 814L899 814L899 877L1051 877L1051 939L894 939L894 1002L965 1002L965 1064L963 1064L963 1127L846 1127L846 1190L1108 1190L1108 1252L862 1252L862 1315L818 1315L818 1377L844 1377L844 1440L0 1440L0 1377L0 1377L0 1315L0 1315L0 1252L0 1252L0 1190L0 1190L0 1127L0 1127L0 1064L0 1064L0 1002L0 1002L0 939L0 939L0 877L0 877L0 814L0 814L0 751L0 751L0 689L0 689L0 626L0 626L0 563L0 563L0 501L0 501L0 438L0 438L0 376L0 376L0 313L0 313L0 250L0 250L0 188L0 188L0 125L0 125L0 63L0 63L0 0L0 0Z" fill="#106a07"></path><path d="M525 0L792 0L792 63L692 63L692 125L752 125L752 188L719 188L719 250L774 250L774 313L555 313L555 376L622 376L622 438L705 438L705 501L488 501L488 563L597 563L597 626L528 626L528 689L747 689L747 751L705 751L705 814L709 814L709 877L718 877L718 939L515 939L515 1002L538 1002L538 1064L550 1064L550 1127L691 1127L691 1190L736 1190L736 1252L613 1252L613 1315L728 1315L728 1377L566 1377L566 1440L0 1440L0 1377L0 1377L0 1315L0 1315L0 1252L0 1252L0 1190L0 1190L0 1127L0 1127L0 1064L0 1064L0 1002L0 1002L0 939L0 939L0 877L0 877L0 814L0 814L0 751L0 751L0 689L0 689L0 626L0 626L0 563L0 563L0 501L0 501L0 438L0 438L0 376L0 376L0 313L0 313L0 250L0 250L0 188L0 188L0 125L0 125L0 63L0 63L0 0L0 0Z" fill="#129406"></path><path d="M466 0L254 0L254 63L421 63L421 125L165 125L165 188L397 188L397 250L379 250L379 313L272 313L272 376L321 376L321 438L259 438L259 501L353 501L353 563L192 563L192 626L210 626L210 689L405 689L405 751L376 751L376 814L452 814L452 877L445 877L445 939L368 939L368 1002L321 1002L321 1064L242 1064L242 1127L190 1127L190 1190L449 1190L449 1252L286 1252L286 1315L365 1315L365 1377L178 1377L178 1440L0 1440L0 1377L0 1377L0 1315L0 1315L0 1252L0 1252L0 1190L0 1190L0 1127L0 1127L0 1064L0 1064L0 1002L0 1002L0 939L0 939L0 877L0 877L0 814L0 814L0 751L0 751L0 689L0 689L0 626L0 626L0 563L0 563L0 501L0 501L0 438L0 438L0 376L0 376L0 313L0 313L0 250L0 250L0 188L0 188L0 125L0 125L0 63L0 63L0 0L0 0Z" fill="#10c100"></path></svg>